# xmcd CD database file
#
# Track frame offsets:
#	150
#	19088
#	46518
#	74156
#	100681
#	132910
#	164354
#	188404
#	217665
#	234442
#
# Disc length: 3431 seconds
#
# Revision: 0
# Processed by: cddbd v1.5.2PL0 Copyright (c) Steve Scherf et al.
# Submitted via: CDex 1.51
#
DISCID=780d650a
DTITLE=Pablo Ledesma and Pepe Angelillo - Memorial Steve Lacy (1934-2004)
DYEAR=2007
DGENRE=Jazz
TTITLE0=Blues for Aida
TTITLE1=Bone
TTITLE2=The crust
TTITLE3=Johnny come lately
TTITLE4=Reincarnation of a LoveBird
TTITLE5=Esteem
TTITLE6=Theme for Jessica
TTITLE7=Peggy's blue skylight
TTITLE8=Prayer
TTITLE9=Retorno
EXTD=YEAR: 2007
EXTT0=
EXTT1=
EXTT2=
EXTT3=
EXTT4=
EXTT5=
EXTT6=
EXTT7=
EXTT8=
EXTT9=
PLAYORDER=
